<?xml version="1.0" encoding="UTF-8"?>
<svg xmlns="http://www.w3.org/2000/svg" viewBox="0 0 160 160">
  <defs>
    <style>
      .cls-1, .cls-2, .cls-3 {
        stroke-miterlimit: 10;
      }

      .cls-1, .cls-3 {
        fill: #00deff;
        stroke: #00deff;
      }

      .cls-2 {
        fill: #f0f;
        stroke: #f0f;
      }

      .cls-2, .cls-3 {
        stroke-width: 2px;
      }

      .cls-4 {
        fill: #101729;
      }
    </style>
  </defs>
  <g id="Layer_1" data-name="Layer 1">
    <rect class="cls-4" width="160" height="160" rx="28.01" ry="28.01"/>
  </g>
  <g id="Layer_2" data-name="Layer 2">
    <path class="cls-1" d="M25.27,120c-3.36,8.3-10.98,13.72-18.76,9.45-3.26-1.79-4.66-5.84-2.98-9.01,1.03-1.95,3.5-2.23,5.16-1.74,3.94,1.16,3.04,5.83,4.18,6.46,2.02,1.13,5.14-1.9,5.93-5.22.6-2.51,1.3-4.96,1.63-7.6,2.55-20.75,1.39-42.26,4.61-61.93,1.72-10.47,5.83-29.21,20.08-27.45,4.68.58,8.07,4.95,6.48,9.54-.78,2.27-3.34,3.07-5.22,2.49-4.67-1.43-2.49-6.32-4-6.99-3.2-1.43-6.06,4-6.94,7.79-1.85,7.94-2.28,15.86-2.47,24.12-.31,13.09-.7,25.74-2.34,38.67-.95,7.52-2.56,14.49-5.37,21.43Z"/>
    <path class="cls-3" d="M57.27,93.76c4.98,5.61,15.87,4.46,21.31-1.06,1.23-.4,3.91,2.73,3.24,3.86-2.99,4.97-9.4,6.56-15.1,6.74-7.79.25-15.03-3.42-18.03-10.81-2.54-6.25-2.55-13.32-.74-19.81,2.36-8.43,10.15-13.25,18.74-12.88,5.96.26,11.43,2.76,14.13,8.17,2.3,4.6,2.9,9.84,2.07,15.1l-28.97.18c-.19,3.86.9,7.75,3.35,10.51ZM76.69,77.76c.1-4.12-1.36-7.33-3.89-10-4.42-3.05-10.51-3.09-14.74.46-2.78,2.34-4.1,6.09-4.18,9.56h22.81Z"/>
    <path class="cls-2" d="M124.69,64.96c-.59,1.07-14.33.65-14.89-.07-.39-.5-.3-2.21.49-2.2,1.49.01,2.69.32,4.22-.33l-.15-14.59c-1.46-.48-2.83-.1-4.42-.19-.35-.68-.47-2.22.15-2.4,1.78-.52,8.36-1.66,7.81,2.07,2.11-2.43,7.4-4.67,9.8-2.17,1.34,1.39,1.61,5.41.14,5.88-1.03.33-1.64-.18-2.01-1.29-.25-.75-.31-1.51-.75-1.94-.51-.49-1.47-.45-2.34-.24-6.97,1.69-4.47,8.55-4.67,14.92,1.81.81,5.86-.34,6.55.83.28.48.31,1.26.06,1.7Z"/>
    <path class="cls-2" d="M90.29,71.13c1.82-1.13,4.52,1.04,7.36-.76.96-.61,1.92-2.07,1.93-3.74l.12-18.85c-2.68-.77-4.94.11-7.4-.33-.55-.1-.4-2.14.12-2.26,3.37-.74,6.8-1.07,10.61-.63l.11,20.78c.01,2.12-.41,4.66-1.91,6.27-2.82,3.03-8,3.83-11.49,1.67-.88-.54.11-1.87.57-2.15Z"/>
    <path class="cls-2" d="M99.64,35.57c1.39-.53,2.5.45,2.81,1.25.59,1.49.16,3.08-.86,3.41-1.64.53-3.2.14-3.62-1.2s.11-2.87,1.67-3.46Z"/>
    <path class="cls-2" d="M147.24,77.18c-2.16-1.81-3.59-3.52-4.31-5.13-.97-2.09-1.46-4.61-1.46-7.56v-25.66c0-2.66-.7-4.87-2.09-6.63-1.39-1.76-3.13-2.73-5.2-2.92-1.35-.14-2.22-.43-2.6-.86-.55-.62-.82-1.35-.82-2.21s.26-1.57.79-2.14c.53-.57,1.32-.86,2.38-.86,3.38,0,6.17,1.21,8.37,3.64,3,3.23,4.5,7.22,4.5,11.98v25.66c0,2.61.71,4.81,2.12,6.59,1.42,1.78,3.2,2.77,5.36,2.96,1.14.14,1.95.48,2.44,1,.49.52.73,1.24.73,2.14,0,.95-.24,1.69-.73,2.21-.49.52-1.3.86-2.44,1-2.2.19-3.99,1.18-5.39,2.96-1.4,1.78-2.09,3.98-2.09,6.59v25.66c0,4.47-1.27,8.19-3.8,11.16-2.54,2.97-5.56,4.46-9.07,4.46-1.06,0-1.85-.29-2.38-.86-.53-.57-.79-1.31-.79-2.21,0-.86.25-1.57.76-2.14.42-.43,1.31-.71,2.66-.86,2.11-.24,3.86-1.25,5.23-3.03,1.37-1.78,2.06-3.98,2.06-6.59v-25.59c0-2.99.42-5.42,1.27-7.27s2.35-3.68,4.5-5.49Z"/>
  </g>
</svg>